<svg width="730" height="128" viewBox="0 0 730 128" fill="none" xmlns="http://www.w3.org/2000/svg">
<path fill-rule="evenodd" clip-rule="evenodd" d="M145.612 127.776C152.681 118.028 165.91 115.391 176.096 121.33L217.631 64.0548C208.821 56.2179 207.218 42.8238 214.286 33.0757C214.34 33.0018 214.395 32.9287 214.45 32.8557L176.916 5.63727C176.863 5.71148 176.811 5.78664 176.758 5.86044C169.688 15.6084 156.459 18.2466 146.273 12.3081L123.767 43.3434C145.576 52.8154 171.626 46.8398 187.001 27.7917C185.316 32.5714 182.922 37.1917 179.795 41.5038C164.26 62.9254 124.899 66.9257 112.865 58.3927C100.83 49.8597 102.485 37.1764 109.547 27.4384C109.601 27.3646 109.656 27.2921 109.71 27.2191L72.1763 3.41455e-06C72.1237 0.0743173 72.0718 0.149903 72.0182 0.223802C64.9491 9.97164 51.7202 12.6092 41.5338 6.67087L0 63.9452C8.80962 71.7821 10.413 85.1762 3.34436 94.9243C3.2908 94.9982 3.23539 95.0713 3.18113 95.1443L40.7151 122.363C40.7677 122.288 40.8197 122.213 40.8732 122.14C47.9423 112.392 61.1712 109.754 71.3576 115.692L93.864 84.6566C72.0549 75.1845 46.0044 81.1603 30.6297 100.208C32.315 95.4287 34.7092 90.8082 37.8362 86.4962C53.3707 65.0745 90.5393 58.8763 104.766 69.6086C118.993 80.3409 115.145 90.8239 108.083 100.562C108.03 100.635 107.974 100.708 107.92 100.781L145.454 128C145.506 127.926 145.558 127.85 145.612 127.776ZM58.0426 25.0403L94.2076 51.2659C73.497 39.3512 46.1977 44.6695 26.8027 68.1197L58.0426 25.0403ZM123.423 76.7341C144.134 88.6487 171.432 83.3304 190.827 59.8803L159.587 102.96L123.423 76.7341Z" fill="#6E5ACD"/>
<path d="M269.031 99V29H314.031V41H282.231V57.7H311.231V69.7H282.231V87H314.631V99H269.031ZM335.202 99L319.402 49.4H332.802L344.302 89.8H346.102L357.602 49.4H371.002L355.202 99H335.202ZM401.722 100.4C396.789 100.4 392.356 99.4 388.422 97.4C384.489 95.4 381.389 92.5 379.122 88.7C376.856 84.9 375.722 80.3333 375.722 75V73.4C375.722 68.0667 376.856 63.5 379.122 59.7C381.389 55.9 384.489 53 388.422 51C392.356 49 396.789 48 401.722 48C406.656 48 411.089 49 415.022 51C418.956 53 422.056 55.9 424.322 59.7C426.589 63.5 427.722 68.0667 427.722 73.4V75C427.722 80.3333 426.589 84.9 424.322 88.7C422.056 92.5 418.956 95.4 415.022 97.4C411.089 99.4 406.656 100.4 401.722 100.4ZM401.722 89.2C405.589 89.2 408.789 87.9667 411.322 85.5C413.856 82.9667 415.122 79.3667 415.122 74.7V73.7C415.122 69.0333 413.856 65.4667 411.322 63C408.856 60.4667 405.656 59.2 401.722 59.2C397.856 59.2 394.656 60.4667 392.122 63C389.589 65.4667 388.322 69.0333 388.322 73.7V74.7C388.322 79.3667 389.589 82.9667 392.122 85.5C394.656 87.9667 397.856 89.2 401.722 89.2Z" fill="#6E5ACD"/>
<path d="M457.553 99V36.6H435.053V29H488.453V36.6H465.953V99H457.553ZM498.563 99V50.1H506.463V99H498.563ZM502.563 42.5C500.829 42.5 499.363 41.9333 498.163 40.8C497.029 39.6667 496.463 38.2333 496.463 36.5C496.463 34.7 497.029 33.2333 498.163 32.1C499.363 30.9667 500.829 30.4 502.563 30.4C504.296 30.4 505.729 30.9667 506.863 32.1C507.996 33.2333 508.563 34.7 508.563 36.5C508.563 38.2333 507.996 39.6667 506.863 40.8C505.729 41.9333 504.296 42.5 502.563 42.5ZM545.575 100.4C540.841 100.4 536.575 99.4 532.775 97.4C529.041 95.3333 526.075 92.4 523.875 88.6C521.741 84.8 520.675 80.3 520.675 75.1V74C520.675 68.7333 521.741 64.2333 523.875 60.5C526.075 56.7 529.041 53.8 532.775 51.8C536.575 49.7333 540.841 48.7 545.575 48.7C550.241 48.7 554.208 49.5667 557.475 51.3C560.808 53.0333 563.408 55.3333 565.275 58.2C567.208 61.0667 568.441 64.1333 568.975 67.4L561.275 69C560.941 66.6 560.141 64.4 558.875 62.4C557.675 60.4 555.975 58.8 553.775 57.6C551.575 56.4 548.875 55.8 545.675 55.8C542.408 55.8 539.475 56.5333 536.875 58C534.341 59.4667 532.308 61.5667 530.775 64.3C529.308 67.0333 528.575 70.3 528.575 74.1V75C528.575 78.8 529.308 82.0667 530.775 84.8C532.308 87.5333 534.341 89.6333 536.875 91.1C539.475 92.5667 542.408 93.3 545.675 93.3C550.541 93.3 554.241 92.0333 556.775 89.5C559.375 86.9667 560.975 83.8333 561.575 80.1L569.375 81.8C568.641 85 567.308 88.0333 565.375 90.9C563.441 93.7667 560.808 96.0667 557.475 97.8C554.208 99.5333 550.241 100.4 545.575 100.4ZM582.84 99V29H590.74V70.2H592.14L614.54 50.1H625.54L598.44 73.9L626.34 99H615.44L592.14 77.7H590.74V99H582.84ZM656.412 100.4C651.479 100.4 647.145 99.3667 643.412 97.3C639.679 95.1667 636.779 92.2 634.712 88.4C632.645 84.6 631.612 80.2 631.612 75.2V74C631.612 68.9333 632.645 64.5 634.712 60.7C636.779 56.9 639.645 53.9667 643.312 51.9C646.979 49.7667 651.179 48.7 655.912 48.7C660.512 48.7 664.579 49.7 668.112 51.7C671.645 53.6333 674.412 56.4333 676.412 60.1C678.412 63.7667 679.412 68.0667 679.412 73V76.6H639.512C639.712 81.8667 641.412 86 644.612 89C647.812 91.9333 651.812 93.4 656.612 93.4C660.812 93.4 664.045 92.4333 666.312 90.5C668.579 88.5667 670.312 86.2667 671.512 83.6L678.312 86.9C677.312 88.9667 675.912 91.0333 674.112 93.1C672.379 95.1667 670.079 96.9 667.212 98.3C664.412 99.7 660.812 100.4 656.412 100.4ZM639.612 70.1H671.412C671.145 65.5667 669.579 62.0333 666.712 59.5C663.912 56.9667 660.312 55.7 655.912 55.7C651.445 55.7 647.779 56.9667 644.912 59.5C642.045 62.0333 640.279 65.5667 639.612 70.1ZM709.141 99C706.341 99 704.174 98.2333 702.641 96.7C701.174 95.1667 700.441 93.0667 700.441 90.4V57H685.741V50.1H700.441V32.7H708.341V50.1H724.341V57H708.341V89.2C708.341 91.2 709.308 92.2 711.241 92.2H722.141V99H709.141Z" fill="#FAFBFC"/>
</svg>
