<svg width="218" height="128" viewBox="0 0 218 128" fill="none" xmlns="http://www.w3.org/2000/svg">
<path fill-rule="evenodd" clip-rule="evenodd" d="M145.612 127.776C152.681 118.028 165.91 115.391 176.096 121.33L217.631 64.0548C208.821 56.2179 207.218 42.8238 214.286 33.0757C214.34 33.0018 214.395 32.9287 214.45 32.8557L176.916 5.63727C176.863 5.71148 176.811 5.78664 176.758 5.86044C169.688 15.6084 156.459 18.2466 146.273 12.3081L123.767 43.3434C145.576 52.8154 171.626 46.8398 187.001 27.7917C185.316 32.5714 182.922 37.1917 179.795 41.5038C164.26 62.9254 124.899 66.9257 112.865 58.3927C100.83 49.8597 102.485 37.1764 109.547 27.4384C109.601 27.3646 109.656 27.2921 109.71 27.2191L72.1763 3.41455e-06C72.1237 0.0743173 72.0718 0.149903 72.0182 0.223802C64.9491 9.97164 51.7202 12.6092 41.5338 6.67087L0 63.9452C8.80962 71.7821 10.413 85.1762 3.34436 94.9243C3.2908 94.9982 3.23539 95.0713 3.18113 95.1443L40.7151 122.363C40.7677 122.288 40.8197 122.213 40.8732 122.14C47.9423 112.392 61.1712 109.754 71.3576 115.692L93.864 84.6566C72.0549 75.1845 46.0044 81.1603 30.6297 100.208C32.315 95.4287 34.7092 90.8082 37.8362 86.4962C53.3707 65.0745 90.5393 58.8763 104.766 69.6086C118.993 80.3409 115.145 90.8239 108.083 100.562C108.03 100.635 107.974 100.708 107.92 100.781L145.454 128C145.506 127.926 145.558 127.85 145.612 127.776ZM58.0426 25.0403L94.2076 51.2659C73.497 39.3512 46.1977 44.6695 26.8027 68.1197L58.0426 25.0403ZM123.423 76.7341C144.134 88.6487 171.432 83.3304 190.827 59.8803L159.587 102.96L123.423 76.7341Z" fill="#6E5ACD"/>
</svg>
