<svg width="467" height="128" viewBox="0 0 467 128" fill="none" xmlns="http://www.w3.org/2000/svg">
<path d="M6.6 99V29H51.6V41H19.8V57.7H48.8V69.7H19.8V87H52.2V99H6.6ZM72.7711 99L56.9711 49.4H70.3711L81.8711 89.8H83.6711L95.1711 49.4H108.571L92.7711 99H72.7711ZM139.291 100.4C134.358 100.4 129.925 99.4 125.991 97.4C122.058 95.4 118.958 92.5 116.691 88.7C114.425 84.9 113.291 80.3333 113.291 75V73.4C113.291 68.0667 114.425 63.5 116.691 59.7C118.958 55.9 122.058 53 125.991 51C129.925 49 134.358 48 139.291 48C144.225 48 148.658 49 152.591 51C156.525 53 159.625 55.9 161.891 59.7C164.158 63.5 165.291 68.0667 165.291 73.4V75C165.291 80.3333 164.158 84.9 161.891 88.7C159.625 92.5 156.525 95.4 152.591 97.4C148.658 99.4 144.225 100.4 139.291 100.4ZM139.291 89.2C143.158 89.2 146.358 87.9667 148.891 85.5C151.425 82.9667 152.691 79.3667 152.691 74.7V73.7C152.691 69.0333 151.425 65.4667 148.891 63C146.425 60.4667 143.225 59.2 139.291 59.2C135.425 59.2 132.225 60.4667 129.691 63C127.158 65.4667 125.891 69.0333 125.891 73.7V74.7C125.891 79.3667 127.158 82.9667 129.691 85.5C132.225 87.9667 135.425 89.2 139.291 89.2Z" fill="#6E5ACD"/>
<path d="M195.122 99V36.6H172.622V29H226.022V36.6H203.522V99H195.122ZM236.132 99V50.1H244.032V99H236.132ZM240.132 42.5C238.399 42.5 236.932 41.9333 235.732 40.8C234.599 39.6667 234.032 38.2333 234.032 36.5C234.032 34.7 234.599 33.2333 235.732 32.1C236.932 30.9667 238.399 30.4 240.132 30.4C241.865 30.4 243.299 30.9667 244.432 32.1C245.565 33.2333 246.132 34.7 246.132 36.5C246.132 38.2333 245.565 39.6667 244.432 40.8C243.299 41.9333 241.865 42.5 240.132 42.5ZM283.144 100.4C278.41 100.4 274.144 99.4 270.344 97.4C266.61 95.3333 263.644 92.4 261.444 88.6C259.31 84.8 258.244 80.3 258.244 75.1V74C258.244 68.7333 259.31 64.2333 261.444 60.5C263.644 56.7 266.61 53.8 270.344 51.8C274.144 49.7333 278.41 48.7 283.144 48.7C287.81 48.7 291.777 49.5667 295.044 51.3C298.377 53.0333 300.977 55.3333 302.844 58.2C304.777 61.0667 306.01 64.1333 306.544 67.4L298.844 69C298.51 66.6 297.71 64.4 296.444 62.4C295.244 60.4 293.544 58.8 291.344 57.6C289.144 56.4 286.444 55.8 283.244 55.8C279.977 55.8 277.044 56.5333 274.444 58C271.91 59.4667 269.877 61.5667 268.344 64.3C266.877 67.0333 266.144 70.3 266.144 74.1V75C266.144 78.8 266.877 82.0667 268.344 84.8C269.877 87.5333 271.91 89.6333 274.444 91.1C277.044 92.5667 279.977 93.3 283.244 93.3C288.11 93.3 291.81 92.0333 294.344 89.5C296.944 86.9667 298.544 83.8333 299.144 80.1L306.944 81.8C306.21 85 304.877 88.0333 302.944 90.9C301.01 93.7667 298.377 96.0667 295.044 97.8C291.777 99.5333 287.81 100.4 283.144 100.4ZM320.409 99V29H328.309V70.2H329.709L352.109 50.1H363.109L336.009 73.9L363.909 99H353.009L329.709 77.7H328.309V99H320.409ZM393.981 100.4C389.048 100.4 384.715 99.3667 380.981 97.3C377.248 95.1667 374.348 92.2 372.281 88.4C370.215 84.6 369.181 80.2 369.181 75.2V74C369.181 68.9333 370.215 64.5 372.281 60.7C374.348 56.9 377.215 53.9667 380.881 51.9C384.548 49.7667 388.748 48.7 393.481 48.7C398.081 48.7 402.148 49.7 405.681 51.7C409.215 53.6333 411.981 56.4333 413.981 60.1C415.981 63.7667 416.981 68.0667 416.981 73V76.6H377.081C377.281 81.8667 378.981 86 382.181 89C385.381 91.9333 389.381 93.4 394.181 93.4C398.381 93.4 401.615 92.4333 403.881 90.5C406.148 88.5667 407.881 86.2667 409.081 83.6L415.881 86.9C414.881 88.9667 413.481 91.0333 411.681 93.1C409.948 95.1667 407.648 96.9 404.781 98.3C401.981 99.7 398.381 100.4 393.981 100.4ZM377.181 70.1H408.981C408.715 65.5667 407.148 62.0333 404.281 59.5C401.481 56.9667 397.881 55.7 393.481 55.7C389.015 55.7 385.348 56.9667 382.481 59.5C379.615 62.0333 377.848 65.5667 377.181 70.1ZM446.71 99C443.91 99 441.743 98.2333 440.21 96.7C438.743 95.1667 438.01 93.0667 438.01 90.4V57H423.31V50.1H438.01V32.7H445.91V50.1H461.91V57H445.91V89.2C445.91 91.2 446.877 92.2 448.81 92.2H459.71V99H446.71Z" fill="#121826"/>
</svg>
