<svg width="467" height="301" viewBox="0 0 467 301" fill="none" xmlns="http://www.w3.org/2000/svg">
<path fill-rule="evenodd" clip-rule="evenodd" d="M270.297 127.776C277.366 118.028 290.594 115.391 300.781 121.33L342.315 64.0548C333.506 56.2179 331.902 42.8238 338.971 33.0757C339.025 33.0018 339.08 32.9287 339.134 32.8557L301.6 5.63727C301.548 5.71148 301.496 5.78664 301.442 5.86044C294.373 15.6084 281.144 18.2466 270.957 12.3081L248.451 43.3434C270.26 52.8154 296.311 46.8398 311.686 27.7917C310 32.5714 307.606 37.1917 304.479 41.5038C288.945 62.9254 249.583 66.9257 237.549 58.3927C225.515 49.8597 227.17 37.1764 234.232 27.4384C234.285 27.3646 234.341 27.2921 234.395 27.2191L196.861 3.41455e-06C196.808 0.0743173 196.756 0.149903 196.703 0.223802C189.634 9.97164 176.405 12.6092 166.218 6.67087L124.685 63.9452C133.494 71.7821 135.098 85.1762 128.029 94.9243C127.975 94.9982 127.92 95.0713 127.866 95.1443L165.4 122.363C165.452 122.288 165.504 122.213 165.558 122.14C172.627 112.392 185.856 109.754 196.042 115.692L218.549 84.6566C196.739 75.1845 170.689 81.1603 155.314 100.208C157 95.4287 159.394 90.8082 162.521 86.4962C178.055 65.0745 215.224 58.8763 229.451 69.6086C243.677 80.3409 239.829 90.8239 232.768 100.562C232.714 100.635 232.659 100.708 232.604 100.781L270.138 128C270.191 127.926 270.243 127.85 270.297 127.776ZM182.727 25.0403L218.892 51.2659C198.182 39.3512 170.882 44.6695 151.487 68.1197L182.727 25.0403ZM248.108 76.7341C268.818 88.6487 296.117 83.3304 315.512 59.8803L284.272 102.96L248.108 76.7341Z" fill="#6E5ACD"/>
<path d="M6.6 271.8V201.8H51.6V213.8H19.8V230.5H48.8V242.5H19.8V259.8H52.2V271.8H6.6ZM72.7711 271.8L56.9711 222.2H70.3711L81.8711 262.6H83.6711L95.1711 222.2H108.571L92.7711 271.8H72.7711ZM139.291 273.2C134.358 273.2 129.925 272.2 125.991 270.2C122.058 268.2 118.958 265.3 116.691 261.5C114.425 257.7 113.291 253.133 113.291 247.8V246.2C113.291 240.867 114.425 236.3 116.691 232.5C118.958 228.7 122.058 225.8 125.991 223.8C129.925 221.8 134.358 220.8 139.291 220.8C144.225 220.8 148.658 221.8 152.591 223.8C156.525 225.8 159.625 228.7 161.891 232.5C164.158 236.3 165.291 240.867 165.291 246.2V247.8C165.291 253.133 164.158 257.7 161.891 261.5C159.625 265.3 156.525 268.2 152.591 270.2C148.658 272.2 144.225 273.2 139.291 273.2ZM139.291 262C143.158 262 146.358 260.767 148.891 258.3C151.425 255.767 152.691 252.167 152.691 247.5V246.5C152.691 241.833 151.425 238.267 148.891 235.8C146.425 233.267 143.225 232 139.291 232C135.425 232 132.225 233.267 129.691 235.8C127.158 238.267 125.891 241.833 125.891 246.5V247.5C125.891 252.167 127.158 255.767 129.691 258.3C132.225 260.767 135.425 262 139.291 262Z" fill="#6E5ACD"/>
<path d="M195.122 271.8V209.4H172.622V201.8H226.022V209.4H203.522V271.8H195.122ZM236.132 271.8V222.9H244.032V271.8H236.132ZM240.132 215.3C238.399 215.3 236.932 214.733 235.732 213.6C234.599 212.467 234.032 211.033 234.032 209.3C234.032 207.5 234.599 206.033 235.732 204.9C236.932 203.767 238.399 203.2 240.132 203.2C241.865 203.2 243.299 203.767 244.432 204.9C245.565 206.033 246.132 207.5 246.132 209.3C246.132 211.033 245.565 212.467 244.432 213.6C243.299 214.733 241.865 215.3 240.132 215.3ZM283.144 273.2C278.41 273.2 274.144 272.2 270.344 270.2C266.61 268.133 263.644 265.2 261.444 261.4C259.31 257.6 258.244 253.1 258.244 247.9V246.8C258.244 241.533 259.31 237.033 261.444 233.3C263.644 229.5 266.61 226.6 270.344 224.6C274.144 222.533 278.41 221.5 283.144 221.5C287.81 221.5 291.777 222.367 295.044 224.1C298.377 225.833 300.977 228.133 302.844 231C304.777 233.867 306.01 236.933 306.544 240.2L298.844 241.8C298.51 239.4 297.71 237.2 296.444 235.2C295.244 233.2 293.544 231.6 291.344 230.4C289.144 229.2 286.444 228.6 283.244 228.6C279.977 228.6 277.044 229.333 274.444 230.8C271.91 232.267 269.877 234.367 268.344 237.1C266.877 239.833 266.144 243.1 266.144 246.9V247.8C266.144 251.6 266.877 254.867 268.344 257.6C269.877 260.333 271.91 262.433 274.444 263.9C277.044 265.367 279.977 266.1 283.244 266.1C288.11 266.1 291.81 264.833 294.344 262.3C296.944 259.767 298.544 256.633 299.144 252.9L306.944 254.6C306.21 257.8 304.877 260.833 302.944 263.7C301.01 266.567 298.377 268.867 295.044 270.6C291.777 272.333 287.81 273.2 283.144 273.2ZM320.409 271.8V201.8H328.309V243H329.709L352.109 222.9H363.109L336.009 246.7L363.909 271.8H353.009L329.709 250.5H328.309V271.8H320.409ZM393.981 273.2C389.048 273.2 384.715 272.167 380.981 270.1C377.248 267.967 374.348 265 372.281 261.2C370.215 257.4 369.181 253 369.181 248V246.8C369.181 241.733 370.215 237.3 372.281 233.5C374.348 229.7 377.215 226.767 380.881 224.7C384.548 222.567 388.748 221.5 393.481 221.5C398.081 221.5 402.148 222.5 405.681 224.5C409.215 226.433 411.981 229.233 413.981 232.9C415.981 236.567 416.981 240.867 416.981 245.8V249.4H377.081C377.281 254.667 378.981 258.8 382.181 261.8C385.381 264.733 389.381 266.2 394.181 266.2C398.381 266.2 401.615 265.233 403.881 263.3C406.148 261.367 407.881 259.067 409.081 256.4L415.881 259.7C414.881 261.767 413.481 263.833 411.681 265.9C409.948 267.967 407.648 269.7 404.781 271.1C401.981 272.5 398.381 273.2 393.981 273.2ZM377.181 242.9H408.981C408.715 238.367 407.148 234.833 404.281 232.3C401.481 229.767 397.881 228.5 393.481 228.5C389.015 228.5 385.348 229.767 382.481 232.3C379.615 234.833 377.848 238.367 377.181 242.9ZM446.71 271.8C443.91 271.8 441.743 271.033 440.21 269.5C438.743 267.967 438.01 265.867 438.01 263.2V229.8H423.31V222.9H438.01V205.5H445.91V222.9H461.91V229.8H445.91V262C445.91 264 446.877 265 448.81 265H459.71V271.8H446.71Z" fill="#121826"/>
</svg>
